<?xml version="1.0" encoding="utf-8"?>
<!-- Generator: Adobe Illustrator 28.0.0, SVG Export Plug-In . SVG Version: 6.00 Build 0)  -->
<svg version="1.1" id="Calque_1" xmlns="http://www.w3.org/2000/svg" xmlns:xlink="http://www.w3.org/1999/xlink" x="0px" y="0px"
	 viewBox="0 0 500 500" style="enable-background:new 0 0 500 500;" xml:space="preserve">
<style type="text/css">
	.st0{fill:#0EA5E9;}
</style>
<path class="st0" d="M250-0.8c-13.5,13.6-28.4,25.9-44.3,36.7c1.4,1.4,2.7,2.8,4.1,4.2c32.7,32.7,70.8,58.4,113.3,76.4
	c16.4,7,33.3,12.6,50.4,17c0,0,0,0,0,0.1c10.2,2.6,20.6,4.7,31.1,6.4v53.7c0,55.2-16.6,108.3-48,153.7
	c-27.2,39.3-63.8,70.3-106.6,90.5c-42.9-20.2-79.4-51.2-106.6-90.5c-31.4-45.4-48-98.5-48-153.7v-53.7c14.5-2.3,28.8-5.6,42.8-9.7
	c16.4,15.5,33.7,29.7,52,42.6c-12.3,4.9-24.8,9.1-37.5,12.8v8c0,43.5,13.1,85.3,37.8,121.1c15.9,23,36.2,42.6,59.5,57.7
	c23.3-15.1,43.6-34.7,59.5-57.7c24.7-35.7,37.8-77.6,37.8-121.1v-8c-34.1-9.8-66.8-24-97.3-42.2v-0.1
	c-18.2-10.9-35.6-23.1-51.9-36.7c0,0,0,0,0,0c-2.3-1.9-4.6-3.9-6.9-5.8c-0.3-0.3-0.6-0.5-0.9-0.8c-2.2-1.9-4.3-3.8-6.5-5.8
	c-0.3-0.3-0.7-0.6-1-0.9c-2-1.8-4-3.7-6-5.6c-0.2-0.2-0.4-0.4-0.6-0.6c-2.3-2.2-4.6-4.4-6.8-6.7c-5.4-5.4-10.6-10.9-15.7-16.5
	C118.1,78.9,79.1,87.1,38.1,87.1v106.5c0,136.3,84.4,258.3,211.9,306.4l0,0l0,0c127.5-48.1,211.9-170.1,211.9-306.4V87.1
	C379.1,87.1,304.2,53.5,250-0.8z M272.8,227.1c0,8.4-4.5,15.7-11.2,19.7l11.2,58H250h-22.8l11.2-58c-6.7-4-11.2-11.3-11.2-19.7
	c0-12.6,10.2-22.8,22.8-22.8S272.8,214.5,272.8,227.1z"/>
</svg>
